# xmcd CD database file
#
# Track frame offsets:
#	150
#	13052
#	28729
#	42381
#
# Disc length: 743 seconds
#
# Revision: 0
# Processed by: cddbd v1.4PL0 Copyright (c) Steve Scherf et al.
# Submitted via: CDex 1.50beta9
#
DISCID=2c02e504
DTITLE=KIERAN McGILLIGAN - WHEN I WANT TO LOVE A LADY
DYEAR=1900
DGENRE=Country
TTITLE0=When I Want To Love A Lady' I Go Home'
TTITLE1=Angeline
TTITLE2=My Own Rollin' Roe 
TTITLE3=Come Dancing
EXTD=
EXTT0=
EXTT1=
EXTT2=
EXTT3=
PLAYORDER=
